<?xml version="1.0" encoding="iso-8859-1"?>
<!-- Generator: Adobe Illustrator 18.0.0, SVG Export Plug-In . SVG Version: 6.00 Build 0)  -->
<!DOCTYPE svg PUBLIC "-//W3C//DTD SVG 1.1//EN" "http://www.w3.org/Graphics/SVG/1.1/DTD/svg11.dtd">
<svg xmlns="http://www.w3.org/2000/svg" xmlns:xlink="http://www.w3.org/1999/xlink" version="1.1" id="Capa_1" x="0px" y="0px" viewBox="0 0 231.929 231.929" style="enable-background:new 0 0 231.929 231.929;" xml:space="preserve" width="512px" height="512px">
<path d="M70.189,231.929h91.551c11.235,0,20.345-9.108,20.345-20.345V20.345C182.085,9.108,172.975,0,161.74,0H70.189  C58.954,0,49.844,9.108,49.844,20.345v191.239C49.844,222.82,58.954,231.929,70.189,231.929z M124.796,218.964h-17.664  c-2.211,0-4-1.791-4-4s1.789-4,4-4h17.664c2.211,0,4,1.791,4,4S127.007,218.964,124.796,218.964z M96.089,12.714h39.75  c1.035,0,1.875,0.839,1.875,1.875s-0.84,1.875-1.875,1.875h-39.75c-1.035,0-1.875-0.839-1.875-1.875S95.054,12.714,96.089,12.714z   M59.714,29.048h112.5V202.88h-112.5V29.048z" fill="#ffb606"/>
<g>
</g>
<g>
</g>
<g>
</g>
<g>
</g>
<g>
</g>
<g>
</g>
<g>
</g>
<g>
</g>
<g>
</g>
<g>
</g>
<g>
</g>
<g>
</g>
<g>
</g>
<g>
</g>
<g>
</g>
</svg>
